<svg xmlns="http://www.w3.org/2000/svg" xml:space="preserve" width="115mm" height="130mm" viewBox="0 0 115 130"><path fill="#fdc6a8" d="M53.7 129.8A73 73 0 0 1 4.6 106c-2-2.1-1.8-2-1.1-2.6 4.1-3.6 12.4-8 20.1-10.9 2.4-.9 2.4-.9 2.5-2.2a11 11 0 0 1 4.7-7.8c.5-.4.5-.4.3-1-1-1.8-3-7.8-3.8-11-.2-.7-.3-1-.7-1a12 12 0 0 1-5-3.2C17.4 61.6 16 51.8 19 48.7c.5-.5.5-.5.2-2.8C14.9 19.7 31.4 0 57.8 0c9.3 0 14.9 1.8 20 6.4 1 1 1.4 1.3 1.8 1.3 10.6 0 18.5 18.6 15.7 37-.3 2.1-.3 2.1.7 3 2.3 2.1 3 5 2.2 9.7-1.2 6.2-5 11.2-9.4 12-.3 0-.6.2-.6.3l-.6 2.4a52.8 52.8 0 0 1-3.3 9.6l1.2 1c2.7 2 4.2 5 4.5 8.4 0 .6 0 .6 2.8 1.6a75 75 0 0 1 19.8 10.8c.7.6.7.5-1.8 3.2A72.1 72.1 0 0 1 53.7 130z"/><path fill="#946547" d="M52.7 129.6a73.2 73.2 0 0 1-48.5-24.2c-1.4-1.6-1.5-1.3 1.1-3.2a74.7 74.7 0 0 1 17-9c4.1-1.6 4-1.5 4-2.7 0-2.5 1.9-5.9 4.5-7.9.7-.5.7-.5-.2-2.4-1-2.4-2.1-5.8-2.9-8.6-.6-2.2-.6-2.2-1.6-2.5-4.8-1.8-7.9-6.7-8.5-13.9-.2-3 .2-5 1.5-6.4.6-.7.6-.7.2-3C16.6 29.3 22.1 15 34.1 7c13.6-8.9 34-9.3 43-.9 1.6 1.5 2 1.7 2.7 1.7 10.4 0 18.2 19 15.3 37.4-.3 1.7-.3 1.7.7 2.6 5.7 5 1.3 18.9-6.7 21.3-1.1.4-1 .2-1.7 3-.6 2.5-1.7 5.7-2.7 8-.8 1.9-.8 1.6.2 2.3 2.7 1.7 4.9 5.5 4.9 8.5 0 .8.1 1 1 1.2 6.5 2 16.2 7.1 21.4 11.2 1 .8 1 .7-1 2.8a72.3 72.3 0 0 1-58.5 23.5zM63 103.4a17.1 17.1 0 0 0 13.1-9.8c1-1.9 1-2.3.6-2a28.2 28.2 0 0 1-37 1c-1.5-1.2-1.5-1-.4 1.2 3 6 7.6 8.8 15.6 10a55 55 0 0 0 8-.4zM73.2 91c2.6-2 8-8.1 11.2-18.1 2-6.4 2.4-11.6 2.2-22-.4-17.7-2.4-25.5-7.9-31.1-2-2.1-1.5-2.2-5 .4-4.6 3.7-9.2 6-13.4 7-2.8.7-3.4.3-2.9-1.8.3-1.2.4-1.2-1-.3-4.2 2.7-8.3 3-8.2.6v-1l-1.6.7C41.6 28 33 29.6 33 28c0-.3.5-2 .9-2.6.4-.8.1-.9-.7-.3-8 5.6-8.8 30.5-.6 52.7a34.8 34.8 0 0 0 11.6 14.7c3 1.4 4.1-1.7 12.5-2.7 8.4-1 14 3.3 16.5 1.3zM53.6 80.7c-4.8-.6-8.2-2.4-7.7-4 .4-.8 1-.9 2.4-.2a25.5 25.5 0 0 0 18.7 0c1.6-.7 2.1-.6 2.5.4 1 2.4-8.7 4.7-15.9 3.8zm2.1-8.4c-3.4-.7-5.8-3-4.3-4.2.5-.4.9-.4 1.6.2 2.4 1.9 6.7 2 8.9.4 1.4-1.2 2.5-1 2.5.3 0 2.1-5 4-8.7 3.3zM41.1 59.5c-1.5-.5-2.5-2.5-2.3-4.7v-1.2c-.5 0-1.8 1.2-2.6 2.4-1.2 1.8-3 .8-2-1 2.9-5.7 15-6.3 15.2-.8 0 1.5-1 1.8-2.1.6-1.2-1.3-2-1.5-1.8-.5.9 3-1.7 6-4.4 5.2zm31.1 0c-1.8-.8-3-3.6-2.2-5.5.4-.9-.5-.5-1.7.7-1.6 1.7-3.1.6-1.9-1.3 2.6-3.9 9.1-4.3 12.9-.9 2.3 2.2 3 4.4 1.2 4.4-.6 0-.8-.1-1.5-1.3-.7-1-1.9-2-2.3-2-.1 0-.2.5-.1 1.4.1 3.3-2 5.5-4.4 4.5zM32.5 48.3c-.4-.2-.6-.7-.3-1.3 1.8-3.6 17.8-4.7 18.5-1.3.3 2-.8 2.4-4 1.7a26 26 0 0 0-11.5.7c-1.8.4-2 .4-2.7.2zm48.6 0a28.9 28.9 0 0 0-12.3-.9c-3 .7-3.9.4-3.9-1.3 0-3.1 12-3.4 17.2-.3 2.5 1.4 1.7 3.2-1 2.4zm8.7 17.6c4-2 7-10.2 5.4-14.6-.6-1.5-.8-1.5-1.1-.1-1 3.5-2.6 7.2-4.3 9.3-.4.6-1 4-1 5.6 0 .3 0 .3 1-.2zm-64-2.6c-.4-2.7-.4-2.7-1.4-4-1-1.3-2.8-4.8-3.4-6.6-.5-1.6-.8-1.2-.7 1.1 0 5.3 2 9.9 5 11.9 1 .6 1 .7.5-2.4z"/><path fill="#464749" d="M52.7 129.5a72.7 72.7 0 0 1-48.3-24c-1.4-1.7-1.5-1.4 1-3.2A73 73 0 0 1 25.8 92c.3-.2.4-.4.5-1.4.3-3 2.5-6.6 4.8-8 .7-.4.7-.3-.2-2.3a62 62 0 0 1-3-8.7c-.6-2.4-.6-2.4-1.3-2.6-7.2-2-11.8-15.4-7-20.4.3-.4.4-.6.3-.8-3.2-11.4.3-27 8-35.3C40.6-.9 66-4 77.4 6.5c1.5 1.4 1.5 1.4 2.9 1.6 10.5 1.8 17.4 18.4 14.8 36-.4 3.2-.4 3 .4 3.5 6 4 1.8 18.7-6 21.2-1.6.6-1.5.4-2.2 3.2-.6 2.4-1.9 6.3-2.8 8.2-.7 1.6-.7 1.5.4 2.3a11 11 0 0 1 4.8 8.3c0 1 0 1 2.9 2a72.2 72.2 0 0 1 18.7 10c1.8 1.3 1.8 1.1.6 2.5a72.2 72.2 0 0 1-59.1 24.2zm9.8-25.8c7-1.2 12-5 14.4-11.1.7-1.8.6-1.8-1.1-.5a28 28 0 0 1-36 0c-2-1.5-2-1-.3 2.3 4 7.4 12.9 11 23 9.3zm-1.2-7.8c12-1.4 21.6-12.4 24.2-28l.8-3.8c.5-2.7.5-3 .6-8 .2-20.7-2.2-31.2-8.7-37.2-1.5-1.4-1.2-1.5-4.5 1.1a34.2 34.2 0 0 1-14 7.1c-2.2.4-2.6 0-2-2 .4-1 .3-1.3-.3-1-5.2 3.4-9.2 4-9 1.4.2-1.4.1-1.4-1-.8a33.3 33.3 0 0 1-12.2 3.7c-2 .2-2.3-.3-1.2-2.8.6-1.3.5-1.6-.3-1.2-6.2 3.2-8.9 20.9-5.5 36.6l1 5.5C33 87 44.9 97.8 61.4 95.9zm-6-15.3c-5.1-.4-9.1-1.9-9.1-3.4 0-1 .6-1.2 1.9-.5 4.4 2.5 15 2.4 19.3 0 1.2-.7 2-.5 2 .5 0 2-8 3.9-14 3.4zm1.1-8.5c-3-.4-5.2-1.7-5.2-3.2 0-1 .9-1 2.1-.1a8.2 8.2 0 0 0 8.8 0c1.5-1.1 2.7-.5 2 1-.7 1.2-4.7 2.7-6.7 2.5l-1-.2zm-15.6-13c-1.4-.8-2.1-3-1.7-4.7.5-2-1.6-.9-3.1 1.5-1 1.6-2.4.7-1.6-1 2.6-4.8 10-6 13.7-2.1 2 2 1 3.5-1 1.6-1.3-1.3-2.3-1.5-2-.4 1.1 3.2-1.8 6.5-4.3 5zm31.1 0c-1.6-1-2.3-3-1.6-5 .4-1.3-.7-1.2-2 .4-1.2 1.2-2.5 1-2-.4 1.1-3.2 6.9-4.6 10.9-2.8 2.4 1.2 4.8 4.3 3.9 5.2-.6.6-1 .3-2.1-1.2-1-1.4-3.2-2.7-2.8-1.6 1 3.4-1.7 7-4.3 5.4zm18.4 6.8c4.3-2.4 7-11.1 4.9-15.3-.6-1.1-1-1.2-1.2-.3-1 4.1-2.3 7-4 9.4-1 1.4-1 1.4-1.3 4-.4 3.4-.4 3.4 1.6 2.2zm-63.8.4c.1-.4-.9-5.7-1.2-6.1a27 27 0 0 1-4-7.3c-.8-2.4-1.3-2-1.3.8 0 5.4 2 10.1 5.3 12.2 1 .7 1 .7 1.2.4zm63.7-12c7-17.8 1.5-41-10.4-44-2-.5-2.6-.8-4.2-2.3-9.2-8.3-29.8-7-42.2 2.7a35.4 35.4 0 0 0-11.7 33.7c.8 5.5 2.9 11.6 2.6 7.7-1.3-14.1 3-28 9.3-30.2 3.7-1.4 4.7-.8 3.8 2.3-.5 1.7-.5 1.7 1.5 1.2 4.1-1 7-2.3 9.5-4.4 2-1.7 2.4-1.4 2.5 1.5l.2 2c.4.3 4.3-1.9 6.5-3.6 1.6-1.3 1.7-1.3 2-1.2.6.2.8 1 .8 3 0 2.2-.2 2 2.3 1 4.3-1.6 9-5 11.5-8.4 1.8-2.4 2.7-2.2 5.6 1 6 6.6 8.7 15.5 9.3 30.2.4 10.4.3 10 1.1 7.8z"/><path fill="#583826" d="m51.2 120.5-.7-.2c-.7-.1-1-.5-1-1.4 0-1.2-.4-1.4-1.5-.6-2.7 1.6-5.5.2-6-3 0-.8 0-.8-1.7-1.8-7-4.4-12.8-12-13.8-18.2-.2-1 0-1-3.2.3a67.2 67.2 0 0 0-16.8 9c-1.6 1.1-1.6 1.1-2.3.3-1-1-1-.8 1.2-2.5A74.3 74.3 0 0 1 24 92.8c2.3-.8 2.3-.8 2.4-2 .4-3.2 2.2-6.3 4.7-8 .7-.4.7-.5-.1-2.3a77 77 0 0 1-3-8.6c-.7-2.6-.7-2.6-1.7-3-7-2.4-11.3-15-7-20 .5-.6.7-.9.6-1.2-3-11.5 0-25.5 7.1-34 11.6-14 38.5-18 50-7.4C78.4 7.7 78.8 8 79.3 8 90 8 97.6 26 94.9 45c-.3 2-.3 2 .7 3 5.6 4.9 1 19-6.7 21-1 .2-1 .2-1.6 2.5-.5 2.4-1.8 6.2-2.8 8.4-.8 2-.8 2 .4 2.9 2.6 1.8 4.5 5.1 4.5 8 0 1 .2 1.2 2 1.8a76.4 76.4 0 0 1 20.8 11c.5.4.4.6-.6 1.7-.5.5-.6.5-.8.3-3-2.9-12.2-7.9-19-10.4-2.3-.8-2.2-.8-2.6.7-2.9 12-18.6 23.2-34.2 24.5-2 .1-3.5.2-3.8 0zm6.8-3c20.8-3.8 37.3-24.9 25.5-32.8-.8-.5-3.3 2.2-3 3 .2.5-.3 3.5-.9 5-2 5.6-5.2 9.2-14.2 15.7-7.5 5.4-8.6 6.2-10.3 7.7-1.7 1.4-2 1.6-1.8 1.8.2.1 3-.1 4.7-.4zm-11.3-1.2c.7-.6.4-2-.4-2.3-.6-.1-1.4.2-1.7.6-.7 1.3 1 2.7 2.1 1.7zm6.1-1.6 2.3-2c1.1-.9 1.2-.8-1-2-11-6-18.5-14.6-19-21.8-.1-1.2-.2-1.5-.6-2l-1-1.4c-.6-1-.5-1-1.4-.3-6.7 4.4-2.7 17.3 7.5 24.8 3.4 2.4 3.6 2.5 4.6 2 2.6-1.2 4.6 0 5.3 3.1 0 .4.7.7 1.7.8a7 7 0 0 0 1.6-1.2zm9-10.8c7.5-1 12.3-4.6 15-10.9 1.2-2.5 1-2.6-1-.9a28 28 0 0 1-36 0c-1.1-.8-2-1.2-1.9-1a23 23 0 0 0 2.5 5c4 6 12.5 9.2 21.4 7.8zm-.5-8c12-1.4 21.6-12.4 24.2-28l.8-3.8c.5-2.7.5-3 .6-8 .2-20.7-2.2-31.2-8.7-37.2-1.5-1.4-1.2-1.5-4.5 1.1a34.2 34.2 0 0 1-14 7.1c-2.2.4-2.6 0-2-2 .4-1 .3-1.3-.3-1-5.2 3.4-9.2 4-9 1.4.2-1.4.1-1.4-1-.8a33.3 33.3 0 0 1-12.2 3.7c-2.1.2-2.4-.3-1.2-2.8.6-1.3.5-1.6-.3-1.2-6.2 3.2-8.9 20.9-5.5 36.6l1 5.5C33 87 44.9 97.8 61.4 95.9zm-6-15.3c-5.1-.4-9.1-1.9-9.1-3.4 0-1 .6-1.2 1.9-.5 4.4 2.5 15 2.4 19.3 0 1.1-.7 2-.5 2 .5 0 2-8 3.9-14 3.4zm1.1-8.5c-3-.4-5.2-1.7-5.2-3.2 0-1 .9-1 2-.1a8.2 8.2 0 0 0 8.9 0c1.5-1.1 2.7-.5 2 1-.7 1.2-4.7 2.7-6.7 2.5l-1-.2zm-15.6-13c-1.4-.8-2.2-3-1.7-4.7.5-2-1.6-.9-3.1 1.5-1 1.6-2.4.7-1.6-1 2.6-4.8 10-6 13.7-2.1 2 2 1 3.5-1 1.6-1.3-1.3-2.3-1.5-2-.4 1.1 3.2-1.8 6.5-4.3 5zm31.1 0c-1.6-1-2.3-3-1.6-5 .4-1.3-.7-1.2-2 .4-1.2 1.2-2.5 1-2-.4 1.1-3.2 6.9-4.6 10.9-2.8 2.4 1.2 4.8 4.3 3.9 5.2-.6.6-1 .3-2.1-1.2-1-1.4-3.2-2.7-2.8-1.6 1 3.4-1.7 7-4.3 5.4zm18.3 6.8c4.4-2.4 7.2-11.1 5-15.3-.6-1.1-1-1.2-1.2-.3-1 4.1-2.3 7-4 9.4-1 1.4-1 1.4-1.3 4-.4 3.4-.4 3.4 1.5 2.2zm-63.7.4c.1-.4-.9-5.7-1.2-6.1a27 27 0 0 1-4-7.3c-.8-2.4-1.3-2-1.3.8 0 5.4 2 10.1 5.3 12.2 1 .7 1 .7 1.2.4zm63.7-12c7-17.8 1.5-41-10.4-44-2-.5-2.6-.8-4.2-2.3-9.2-8.3-29.8-7-42.2 2.7a35.4 35.4 0 0 0-11.7 33.7c.8 5.5 2.9 11.6 2.6 7.7-1.3-14.1 3-28 9.3-30.2 3.7-1.4 4.6-.8 3.8 2.3-.5 1.7-.5 1.7 1.5 1.2 4.1-1 7-2.3 9.5-4.4 2-1.7 2.4-1.4 2.5 1.5l.2 2c.4.3 4.3-1.9 6.5-3.6 1.6-1.3 1.7-1.3 2-1.2.6.2.8 1 .8 3 0 2.2-.2 2 2.3 1 4.3-1.6 9-5 11.5-8.4 1.7-2.4 2.7-2.2 5.6 1 6 6.6 8.7 15.5 9.3 30.2.4 10.4.3 10 1.1 7.8z"/><path fill="#2e2e2f" d="m51.2 120.5-.7-.2c-.7-.1-1-.5-1-1.4 0-1.2-.4-1.4-1.5-.6-2.7 1.6-5.5.2-6-3 0-.8 0-.8-1.7-1.8-7-4.4-12.8-12-13.8-18.2-.2-1 0-1-3.2.3a67.2 67.2 0 0 0-16.8 9c-1.6 1.1-1.6 1.1-2.3.3-1-1-1-.8 1.2-2.5A74.3 74.3 0 0 1 24 92.8c2.3-.8 2.3-.8 2.4-2 .4-3.1 3.5-8.3 5.1-8.3.5 0 1.4 2 1 2.4a8 8 0 0 0-2.3 2.2c-3.9 5.7.6 16.4 9.4 22.9 3.4 2.4 3.6 2.5 4.6 2 2.6-1.2 4.6 0 5.3 3 .2 1.3 1.8 1 3.3-.3l2.3-2c1.1-.9 1.2-.8-1-2-11-6-18.5-14.6-19-21.6-.1-1.4-.1-1.4 1.3.1A9 9 0 0 1 38 91c0 1.4 2.5 5.5 4.5 7.6 7.3 7.4 23 7.6 30.5.3 2-2 4.7-6.5 4.7-7.9l.7-1 1.4-1.5c.9-1.1 1-1 .7 1-1 6.8-4.8 11.5-15 18.9-7.5 5.4-8.6 6.2-10.3 7.7-2.1 1.7-2.1 1.9-.6 1.8 20.7-.8 41.8-24.9 29-33.1-.8-.6-.8-.5-.1-1.8 1.2-2.4 6 3.7 6 7.7 0 1.1.2 1.3 2 2a76.4 76.4 0 0 1 20.8 11c.5.3.4.5-.6 1.6-.5.5-.6.5-.8.3-3-2.9-12.2-7.9-19-10.4-2.3-.8-2.2-.8-2.6.8-2.9 11.9-18.6 23.1-34.2 24.4-2 .1-3.5.2-3.8 0zm-4.5-4.2c.7-.6.4-2-.4-2.3-.6-.1-1.4.2-1.7.6-.7 1.3 1 2.7 2.1 1.7z"/></svg>